<?xml version="1.0" encoding="utf-8"?>
<!-- Generator: Adobe Illustrator 16.0.0, SVG Export Plug-In . SVG Version: 6.00 Build 0)  -->
<!DOCTYPE svg PUBLIC "-//W3C//DTD SVG 1.1//EN" "http://www.w3.org/Graphics/SVG/1.1/DTD/svg11.dtd">
<svg version="1.1" id="Layer_1" xmlns="http://www.w3.org/2000/svg" xmlns:xlink="http://www.w3.org/1999/xlink" x="0px" y="0px"
	 width="256px" height="256px" viewBox="0 0 256 256" enable-background="new 0 0 256 256" xml:space="preserve">
<g>
	
		<radialGradient id="SVGID_1_" cx="220.7578" cy="125.5469" r="156.3305" gradientTransform="matrix(1.0081 0.256 -0.2524 0.9937 38.9053 -13.4238)" gradientUnits="userSpaceOnUse">
		<stop  offset="0" style="stop-color:#FBB03C"/>
		<stop  offset="1" style="stop-color:#F79421"/>
	</radialGradient>
	<polygon opacity="0.7" fill="url(#SVGID_1_)" points="287.565,387.797 74.014,333.563 171.959,-52.106 385.51,2.125 	"/>
	
		<radialGradient id="SVGID_2_" cx="26.2603" cy="126.3276" r="150.8409" gradientTransform="matrix(1.0081 0.256 -0.2524 0.9937 38.9053 -13.4238)" gradientUnits="userSpaceOnUse">
		<stop  offset="0" style="stop-color:#2AAAE2"/>
		<stop  offset="1" style="stop-color:#1072BA"/>
	</radialGradient>
	<polygon opacity="0.7" fill="url(#SVGID_2_)" stroke="#000000" stroke-width="0.5" points="73.816,334.343 -104.772,288.987 
		-6.829,-96.684 171.76,-51.33 	"/>
</g>
<g>
	<g>
		<g>
			
				<radialGradient id="SVGID_3_" cx="32.2168" cy="63.6597" r="59.196" gradientTransform="matrix(0.9248 0 0 0.9433 34.4609 14.1509)" gradientUnits="userSpaceOnUse">
				<stop  offset="0" style="stop-color:#FBB03C"/>
				<stop  offset="1" style="stop-color:#F79421"/>
			</radialGradient>
			<ellipse fill="url(#SVGID_3_)" cx="64.255" cy="74.203" rx="54.747" ry="55.834"/>
			<path fill="none" stroke="#FFFFFF" stroke-width="0.5" d="M113.526,74.203c0,27.753-22.06,50.25-49.273,50.25
				c-27.208,0-49.271-22.498-49.271-50.25c0-27.755,22.063-50.255,49.271-50.255C91.466,23.948,113.526,46.448,113.526,74.203z"/>
		</g>
		<g>
			<g>
				<path fill="#FFFFFF" d="M25.35,64.1c-0.191,0-0.344,0.152-0.37,0.366l-0.876,8.137l0.876,7.961
					c0.026,0.211,0.179,0.366,0.37,0.366c0.186,0,0.338-0.15,0.366-0.366l0.995-7.961l-0.995-8.139
					C25.688,64.25,25.536,64.1,25.35,64.1z"/>
				<path fill="#FFFFFF" d="M22.065,67.217c-0.188,0-0.333,0.146-0.357,0.354l-0.651,5.032l0.651,4.946
					c0.024,0.208,0.169,0.354,0.357,0.354c0.176,0,0.322-0.142,0.354-0.352l0.769-4.948l-0.769-5.034
					C22.388,67.362,22.242,67.217,22.065,67.217z"/>
				<path fill="#FFFFFF" d="M28.84,62.503c-0.237,0-0.422,0.188-0.446,0.446l-0.831,9.656l0.831,9.304
					c0.024,0.257,0.209,0.445,0.446,0.445c0.228,0,0.418-0.188,0.443-0.441l0.943-9.308l-0.943-9.656
					C29.258,62.691,29.068,62.503,28.84,62.503z"/>
				<path fill="#FFFFFF" d="M32.358,62.163c-0.273,0-0.5,0.225-0.522,0.523l-0.784,9.92l0.784,9.598
					c0.022,0.297,0.249,0.521,0.522,0.521c0.272,0,0.496-0.224,0.521-0.521l0.89-9.598l-0.89-9.923
					C32.854,62.386,32.63,62.163,32.358,62.163z"/>
				<polygon fill="#FFFFFF" points="36.499,82.285 36.499,82.285 36.499,82.285 				"/>
				<path fill="#FFFFFF" d="M36.499,63.4c-0.02-0.337-0.276-0.596-0.593-0.596c-0.32,0-0.577,0.259-0.599,0.6l-0.739,9.204
					l0.739,9.678c0.022,0.339,0.279,0.598,0.599,0.598c0.317,0,0.573-0.257,0.593-0.598l0.842-9.678L36.499,63.4z"/>
				<path fill="#FFFFFF" d="M39.482,56.958c-0.359,0-0.652,0.3-0.672,0.68l-0.698,14.974l0.698,9.676
					c0.02,0.378,0.312,0.679,0.672,0.679c0.355,0,0.652-0.301,0.674-0.681v0.004l0.783-9.678l-0.783-14.976
					C40.134,57.257,39.837,56.958,39.482,56.958z"/>
				<path fill="#FFFFFF" d="M43.032,53.508c-0.405,0-0.731,0.332-0.75,0.757l-0.651,18.398l0.651,9.616
					c0.018,0.419,0.345,0.751,0.75,0.751c0.398,0,0.729-0.332,0.748-0.756l-0.001,0.007l0.738-9.618l-0.737-18.398
					C43.761,53.84,43.43,53.508,43.032,53.508z"/>
				<path fill="#FFFFFF" d="M46.72,51.845c-0.446,0-0.809,0.368-0.826,0.838l-0.603,19.931l0.603,9.518
					c0.017,0.465,0.38,0.832,0.826,0.832c0.443,0,0.804-0.367,0.825-0.835v0.005l0.682-9.52l-0.682-19.931
					C47.524,52.213,47.163,51.845,46.72,51.845z"/>
				<path fill="#FFFFFF" d="M51.282,52.012c-0.017-0.515-0.409-0.913-0.903-0.913c-0.488,0-0.883,0.399-0.898,0.913l-0.56,20.604
					l0.562,9.457c0.014,0.509,0.408,0.907,0.896,0.907c0.494,0,0.886-0.398,0.903-0.911l0.631-9.454L51.282,52.012z"/>
				<polygon fill="#FFFFFF" points="51.282,82.07 51.282,82.07 51.282,82.075 				"/>
				<path fill="#FFFFFF" d="M54.073,51.549c-0.534,0-0.963,0.433-0.978,0.99l-0.514,20.078l0.514,9.369
					c0.015,0.548,0.444,0.985,0.978,0.985c0.534,0,0.961-0.437,0.976-0.991v0.008l0.581-9.371L55.048,52.54
					C55.034,51.982,54.606,51.549,54.073,51.549z"/>
				<path fill="#FFFFFF" d="M57.79,52.202c-0.576,0-1.038,0.47-1.051,1.069l-0.47,19.347l0.47,9.309
					c0.013,0.591,0.475,1.06,1.051,1.06c0.58,0,1.043-0.469,1.054-1.068v0.01l0.527-9.311l-0.527-19.347
					C58.833,52.672,58.37,52.202,57.79,52.202z"/>
				<path fill="#FFFFFF" d="M62.163,48.648c-0.181-0.124-0.393-0.196-0.622-0.196c-0.225,0-0.431,0.069-0.609,0.187
					c-0.307,0.205-0.514,0.559-0.519,0.961l-0.004,0.216l-0.423,22.796c0,0.017,0.427,9.255,0.427,9.255
					c0,0.014,0.001,0.03,0.001,0.042c0.013,0.257,0.109,0.494,0.264,0.685c0.206,0.25,0.519,0.416,0.863,0.416
					c0.306,0,0.581-0.128,0.788-0.337c0.204-0.206,0.333-0.494,0.336-0.808l0.05-0.915l0.427-8.327l-0.475-23.023
					C62.662,49.202,62.459,48.855,62.163,48.648z"/>
				<polygon fill="#FFFFFF" points="62.666,81.869 62.666,81.867 62.666,81.869 62.666,81.867 62.667,81.864 62.666,81.864 
					62.666,81.867 				"/>
				<path fill="#FFFFFF" d="M65.883,46.466c-0.178-0.11-0.388-0.175-0.612-0.175c-0.286,0-0.549,0.104-0.758,0.281
					c-0.266,0.225-0.441,0.562-0.446,0.942l-0.002,0.127l-0.49,24.983l0.249,4.617l0.243,4.497c0.011,0.664,0.548,1.213,1.204,1.213
					c0.654,0,1.192-0.549,1.203-1.224v0.012l0,0l0.534-9.114l0,0l-0.534-25.112C66.468,47.069,66.232,46.681,65.883,46.466z"/>
				<path fill="#FFFFFF" d="M98.978,60.739c-1.495,0-2.925,0.308-4.227,0.864c-0.869-10.044-9.128-17.926-19.204-17.926
					c-2.464,0-4.866,0.496-6.989,1.332c-0.827,0.329-1.046,0.661-1.052,1.312v35.375c0.006,0.683,0.525,1.213,1.18,1.279
					c0.028,0.004,30.291,0,30.291,0c6.036,0,10.929-4.932,10.929-11.091C109.907,65.729,105.013,60.739,98.978,60.739z"/>
			</g>
			<path fill="#FFFFFF" d="M29.782,89.683c-1.281-0.305-1.627-0.472-1.627-0.99c0-0.363,0.288-0.742,1.154-0.742
				c0.74,0,1.316,0.308,1.835,0.85l1.164-1.153c-0.761-0.814-1.684-1.296-2.943-1.296c-1.592,0-2.885,0.92-2.885,2.415
				c0,1.623,1.039,2.105,2.53,2.457c1.521,0.354,1.797,0.591,1.797,1.122c0,0.624-0.449,0.895-1.406,0.895
				c-0.773,0-1.499-0.271-2.068-0.944l-1.164,1.061c0.611,0.92,1.789,1.496,3.14,1.496c2.205,0,3.174-1.061,3.174-2.628
				C32.483,90.436,31.063,89.991,29.782,89.683z M37.219,86.353c-2.208,0-3.508,1.738-3.508,4.25c0,2.51,1.301,4.251,3.508,4.251
				c2.202,0,3.508-1.741,3.508-4.251C40.727,88.09,39.421,86.353,37.219,86.353z M37.219,93.214c-1.306,0-1.847-1.142-1.847-2.612
				s0.542-2.614,1.847-2.614s1.845,1.144,1.845,2.614S38.524,93.214,37.219,93.214z M47.247,91.108c0,1.318-0.633,2.133-1.659,2.133
				c-1.027,0-1.653-0.837-1.653-2.156v-4.604h-1.613v4.627c0,2.404,1.317,3.745,3.266,3.745c2.051,0,3.276-1.38,3.276-3.769v-4.604
				h-1.617V91.108z M55.836,89.969c0,0.457,0.023,1.491,0.023,1.8c-0.104-0.213-0.37-0.627-0.565-0.933l-2.864-4.355h-1.547v8.243
				h1.595v-3.626c0-0.463-0.025-1.496-0.025-1.804c0.106,0.211,0.372,0.624,0.565,0.933l2.966,4.497h1.444v-8.243h-1.591V89.969z
				 M62.035,86.481h-2.528v8.243h2.41c2.079,0,4.134-1.225,4.134-4.122C66.051,87.585,64.341,86.481,62.035,86.481z M61.917,93.12
				h-0.795v-5.036h0.855c1.708,0,2.41,0.835,2.41,2.518C64.387,92.107,63.615,93.12,61.917,93.12z M71.049,87.988
				c0.728,0,1.188,0.331,1.477,0.897l1.5-0.708c-0.506-1.072-1.43-1.825-2.955-1.825c-2.111,0-3.588,1.738-3.588,4.25
				c0,2.602,1.418,4.251,3.531,4.251c1.468,0,2.436-0.696,2.991-1.861l-1.364-0.826c-0.428,0.732-0.854,1.049-1.58,1.049
				c-1.214,0-1.919-1.129-1.919-2.612C69.143,89.072,69.837,87.988,71.049,87.988z M77.044,86.481h-1.616v8.243h4.854v-1.626h-3.238
				V86.481z M84.54,86.353c-2.205,0-3.508,1.738-3.508,4.25c0,2.51,1.304,4.251,3.508,4.251c2.208,0,3.51-1.741,3.51-4.251
				C88.05,88.09,86.747,86.353,84.54,86.353z M84.54,93.214c-1.305,0-1.845-1.142-1.845-2.612s0.541-2.614,1.845-2.614
				c1.306,0,1.846,1.144,1.846,2.614S85.845,93.214,84.54,93.214z M94.57,91.108c0,1.318-0.634,2.133-1.661,2.133
				c-1.027,0-1.65-0.837-1.65-2.156v-4.604h-1.617v4.627c0,2.404,1.317,3.745,3.268,3.745c2.053,0,3.28-1.38,3.28-3.769v-4.604
				h-1.62V91.108z M100.736,86.481H98.21v8.243h2.408c2.082,0,4.134-1.225,4.134-4.122
				C104.751,87.585,103.044,86.481,100.736,86.481z M100.618,93.12h-0.795v-5.036h0.855c1.707,0,2.411,0.835,2.411,2.518
				C103.088,92.107,102.317,93.12,100.618,93.12z"/>
		</g>
	</g>
	<g>
		<g>
			
				<radialGradient id="SVGID_4_" cx="167.7988" cy="180.9346" r="59.1968" gradientTransform="matrix(0.9248 0 0 0.9433 34.4609 14.1509)" gradientUnits="userSpaceOnUse">
				<stop  offset="0" style="stop-color:#2AAAE2"/>
				<stop  offset="1" style="stop-color:#1072BA"/>
			</radialGradient>
			<path fill="url(#SVGID_4_)" d="M244.389,184.83c0,30.836-24.513,55.834-54.749,55.834c-30.237,0-54.747-24.998-54.747-55.834
				c0-30.844,24.51-55.842,54.747-55.842C219.876,128.988,244.389,153.986,244.389,184.83z"/>
		</g>
		<g>
			<g>
				<path fill="#FFFFFF" d="M151.16,184.611c0,15.458,8.808,28.815,21.582,35.147l-18.268-51.044
					C152.353,173.572,151.16,178.946,151.16,184.611z"/>
				<path fill="#FFFFFF" d="M215.298,182.641c0-4.831-1.701-8.167-3.158-10.776c-1.943-3.213-3.76-5.936-3.76-9.156
					c0-3.587,2.671-6.931,6.429-6.931c0.167,0,0.334,0.022,0.5,0.032c-6.813-6.366-15.895-10.253-25.862-10.253
					c-13.37,0-25.146,7-31.986,17.602c0.896,0.031,1.741,0.048,2.462,0.048c4.003,0,10.205-0.498,10.205-0.498
					c2.062-0.123,2.305,2.972,0.243,3.221c0,0-2.076,0.245-4.382,0.374l13.943,42.301l8.384-25.635l-5.969-16.666
					c-2.061-0.129-4.015-0.374-4.015-0.374c-2.066-0.123-1.821-3.344,0.242-3.221c0,0,6.322,0.498,10.086,0.498
					c4.003,0,10.205-0.498,10.205-0.498c2.064-0.123,2.303,2.972,0.245,3.221c0,0-2.078,0.245-4.386,0.374l13.842,41.979
					l3.817-13.02C214.04,189.859,215.298,185.984,215.298,182.641z"/>
				<path fill="#FFFFFF" d="M190.119,188.026l-11.487,34.047c3.43,1.031,7.059,1.595,10.814,1.595c4.463,0,8.74-0.789,12.717-2.216
					c-0.102-0.169-0.195-0.345-0.274-0.539L190.119,188.026z"/>
				<path fill="#FFFFFF" d="M223.047,165.873c0.165,1.246,0.257,2.58,0.257,4.017c0,3.965-0.725,8.416-2.91,13.987l-11.695,34.492
					c11.383-6.771,19.042-19.35,19.042-33.758C227.74,177.819,226.037,171.435,223.047,165.873z"/>
				<path fill="#FFFFFF" d="M189.446,139.086c-24.608,0-44.632,20.426-44.632,45.525c0,25.107,20.023,45.525,44.632,45.525
					c24.612,0,44.64-20.418,44.64-45.525C234.086,159.512,214.059,139.086,189.446,139.086z M189.446,228.051
					c-23.481,0-42.585-19.486-42.585-43.439s19.104-43.436,42.585-43.436c23.487,0,42.59,19.482,42.59,43.436
					S212.934,228.051,189.446,228.051z"/>
			</g>
		</g>
	</g>
</g>
</svg>
